<mxfile host="65bd71144e">
    <diagram id="CIU3hQZqG4bvmMYvp0ws" name="Page-1">
        <mxGraphModel dx="1626" dy="4079" grid="1" gridSize="10" guides="1" tooltips="1" connect="1" arrows="1" fold="1" page="1" pageScale="1" pageWidth="850" pageHeight="1100" math="0" shadow="0">
            <root>
                <mxCell id="0"/>
                <mxCell id="1" parent="0"/>
                <mxCell id="2" value="Contact Form" style="rounded=1;whiteSpace=wrap;html=1;" vertex="1" parent="1">
                    <mxGeometry x="490" y="370" width="120" height="60" as="geometry"/>
                </mxCell>
                <mxCell id="3" value="" style="rounded=0;whiteSpace=wrap;html=1;" vertex="1" parent="1">
                    <mxGeometry x="230" y="480" width="640" height="560" as="geometry"/>
                </mxCell>
                <mxCell id="6" value="&lt;h1 style=&quot;margin-top: 0px;&quot;&gt;Heading&lt;/h1&gt;&lt;p&gt;Lorem ipsum dolor sit amet, consectetur adipisicing elit, sed do eiusmod tempor incididunt ut labore et dolore magna aliqua.&lt;/p&gt;" style="text;html=1;whiteSpace=wrap;overflow=hidden;rounded=0;" vertex="1" parent="1">
                    <mxGeometry x="270" y="490" width="420" height="120" as="geometry"/>
                </mxCell>
                <mxCell id="7" value="FIRST NAME" style="rounded=1;whiteSpace=wrap;html=1;align=left;" vertex="1" parent="1">
                    <mxGeometry x="260" y="610" width="270" height="30" as="geometry"/>
                </mxCell>
                <mxCell id="8" value="LAST NAME&lt;span style=&quot;font-family: monospace; font-size: 0px; text-wrap-mode: nowrap;&quot;&gt;%3CmxGraphModel%3E%3Croot%3E%3CmxCell%20id%3D%220%22%2F%3E%3CmxCell%20id%3D%221%22%20parent%3D%220%22%2F%3E%3CmxCell%20id%3D%222%22%20value%3D%22FIRST%20NAME%22%20style%3D%22rounded%3D1%3BwhiteSpace%3Dwrap%3Bhtml%3D1%3Balign%3Dleft%3B%22%20vertex%3D%221%22%20parent%3D%221%22%3E%3CmxGeometry%20x%3D%22260%22%20y%3D%22610%22%20width%3D%22270%22%20height%3D%2230%22%20as%3D%22geometry%22%2F%3E%3C%2FmxCell%3E%3C%2Froot%3E%3C%2FmxGraphModel%3E&lt;/span&gt;" style="rounded=1;whiteSpace=wrap;html=1;align=left;" vertex="1" parent="1">
                    <mxGeometry x="570" y="610" width="270" height="30" as="geometry"/>
                </mxCell>
                <mxCell id="9" value="EMAIL ADDRESS&lt;span style=&quot;font-family: monospace; font-size: 0px; text-wrap-mode: nowrap;&quot;&gt;%3CmxGraphModel%3E%3Croot%3E%3CmxCell%20id%3D%220%22%2F%3E%3CmxCell%20id%3D%221%22%20parent%3D%220%22%2F%3E%3CmxCell%20id%3D%222%22%20value%3D%22LAST%20NAME%26lt%3Bspan%20style%3D%26quot%3Bfont-family%3A%20monospace%3B%20font-size%3A%200px%3B%20text-wrap-mode%3A%20nowrap%3B%26quot%3B%26gt%3B%253CmxGraphModel%253E%253Croot%253E%253CmxCell%2520id%253D%25220%2522%252F%253E%253CmxCell%2520id%253D%25221%2522%2520parent%253D%25220%2522%252F%253E%253CmxCell%2520id%253D%25222%2522%2520value%253D%2522FIRST%2520NAME%2522%2520style%253D%2522rounded%253D1%253BwhiteSpace%253Dwrap%253Bhtml%253D1%253Balign%253Dleft%253B%2522%2520vertex%253D%25221%2522%2520parent%253D%25221%2522%253E%253CmxGeometry%2520x%253D%2522260%2522%2520y%253D%2522610%2522%2520width%253D%2522270%2522%2520height%253D%252230%2522%2520as%253D%2522geometry%2522%252F%253E%253C%252FmxCell%253E%253C%252Froot%253E%253C%252FmxGraphModel%253E%26lt%3B%2Fspan%26gt%3B%22%20style%3D%22rounded%3D1%3BwhiteSpace%3Dwrap%3Bhtml%3D1%3Balign%3Dleft%3B%22%20vertex%3D%221%22%20parent%3D%221%22%3E%3CmxGeometry%20x%3D%22570%22%20y%3D%22610%22%20width%3D%22270%22%20height%3D%2230%22%20as%3D%22geometry%22%2F%3E%3C%2FmxCell%3E%3C%2Froot%3E%3C%2FmxGraphModel%3E&lt;/span&gt;" style="rounded=1;whiteSpace=wrap;html=1;align=left;" vertex="1" parent="1">
                    <mxGeometry x="260" y="660" width="270" height="30" as="geometry"/>
                </mxCell>
                <mxCell id="10" value="PHONE NUMBER" style="rounded=1;whiteSpace=wrap;html=1;align=left;" vertex="1" parent="1">
                    <mxGeometry x="570" y="660" width="270" height="30" as="geometry"/>
                </mxCell>
                <mxCell id="11" value="SUBJECT" style="rounded=1;whiteSpace=wrap;html=1;align=left;" vertex="1" parent="1">
                    <mxGeometry x="260" y="720" width="580" height="30" as="geometry"/>
                </mxCell>
                <mxCell id="12" value="" style="html=1;verticalLabelPosition=bottom;labelBackgroundColor=#ffffff;verticalAlign=top;shadow=0;dashed=0;strokeWidth=2;shape=mxgraph.ios7.misc.down;strokeColor=#0080f0;" vertex="1" parent="1">
                    <mxGeometry x="800" y="732" width="20" height="6" as="geometry"/>
                </mxCell>
                <mxCell id="13" value="" style="rounded=1;whiteSpace=wrap;html=1;strokeWidth=2;fillWeight=4;hachureGap=8;hachureAngle=45;fillColor=#1ba1e2;sketch=1;" vertex="1" parent="1">
                    <mxGeometry x="260" y="780" width="580" height="140" as="geometry"/>
                </mxCell>
                <mxCell id="14" value="SEND MESSAGE" style="strokeWidth=1;shadow=0;dashed=0;align=center;html=1;shape=mxgraph.mockup.buttons.button;strokeColor=#666666;fontColor=#ffffff;mainText=;buttonStyle=round;fontSize=17;fontStyle=1;fillColor=#008cff;whiteSpace=wrap;" vertex="1" parent="1">
                    <mxGeometry x="260" y="960" width="170" height="50" as="geometry"/>
                </mxCell>
                <mxCell id="15" value="" style="rounded=0;whiteSpace=wrap;html=1;" vertex="1" parent="1">
                    <mxGeometry x="1020" y="480" width="470" height="630" as="geometry"/>
                </mxCell>
                <mxCell id="16" value="&lt;h1 style=&quot;margin-top: 0px;&quot;&gt;Heading&lt;/h1&gt;&lt;p&gt;Lorem ipsum dolor sit amet, consectetur adipisicing elit, sed do eiusmod tempor incididunt ut labore et dolore magna aliqua.&lt;/p&gt;" style="text;html=1;whiteSpace=wrap;overflow=hidden;rounded=0;" vertex="1" parent="1">
                    <mxGeometry x="1065" y="500" width="420" height="120" as="geometry"/>
                </mxCell>
                <mxCell id="17" value="FIRST NAME" style="rounded=1;whiteSpace=wrap;html=1;align=left;" vertex="1" parent="1">
                    <mxGeometry x="1065" y="620" width="385" height="30" as="geometry"/>
                </mxCell>
                <mxCell id="18" value="LAST NAME&lt;span style=&quot;font-family: monospace; font-size: 0px; text-wrap-mode: nowrap;&quot;&gt;%3CmxGraphModel%3E%3Croot%3E%3CmxCell%20id%3D%220%22%2F%3E%3CmxCell%20id%3D%221%22%20parent%3D%220%22%2F%3E%3CmxCell%20id%3D%222%22%20value%3D%22FIRST%20NAME%22%20style%3D%22rounded%3D1%3BwhiteSpace%3Dwrap%3Bhtml%3D1%3Balign%3Dleft%3B%22%20vertex%3D%221%22%20parent%3D%221%22%3E%3CmxGeometry%20x%3D%22260%22%20y%3D%22610%22%20width%3D%22270%22%20height%3D%2230%22%20as%3D%22geometry%22%2F%3E%3C%2FmxCell%3E%3C%2Froot%3E%3C%2FmxGraphModel%3E&lt;/span&gt;" style="rounded=1;whiteSpace=wrap;html=1;align=left;" vertex="1" parent="1">
                    <mxGeometry x="1065" y="670" width="385" height="30" as="geometry"/>
                </mxCell>
                <mxCell id="19" value="EMAIL ADDRESS&lt;span style=&quot;font-family: monospace; font-size: 0px; text-wrap-mode: nowrap;&quot;&gt;%3CmxGraphModel%3E%3Croot%3E%3CmxCell%20id%3D%220%22%2F%3E%3CmxCell%20id%3D%221%22%20parent%3D%220%22%2F%3E%3CmxCell%20id%3D%222%22%20value%3D%22LAST%20NAME%26lt%3Bspan%20style%3D%26quot%3Bfont-family%3A%20monospace%3B%20font-size%3A%200px%3B%20text-wrap-mode%3A%20nowrap%3B%26quot%3B%26gt%3B%253CmxGraphModel%253E%253Croot%253E%253CmxCell%2520id%253D%25220%2522%252F%253E%253CmxCell%2520id%253D%25221%2522%2520parent%253D%25220%2522%252F%253E%253CmxCell%2520id%253D%25222%2522%2520value%253D%2522FIRST%2520NAME%2522%2520style%253D%2522rounded%253D1%253BwhiteSpace%253Dwrap%253Bhtml%253D1%253Balign%253Dleft%253B%2522%2520vertex%253D%25221%2522%2520parent%253D%25221%2522%253E%253CmxGeometry%2520x%253D%2522260%2522%2520y%253D%2522610%2522%2520width%253D%2522270%2522%2520height%253D%252230%2522%2520as%253D%2522geometry%2522%252F%253E%253C%252FmxCell%253E%253C%252Froot%253E%253C%252FmxGraphModel%253E%26lt%3B%2Fspan%26gt%3B%22%20style%3D%22rounded%3D1%3BwhiteSpace%3Dwrap%3Bhtml%3D1%3Balign%3Dleft%3B%22%20vertex%3D%221%22%20parent%3D%221%22%3E%3CmxGeometry%20x%3D%22570%22%20y%3D%22610%22%20width%3D%22270%22%20height%3D%2230%22%20as%3D%22geometry%22%2F%3E%3C%2FmxCell%3E%3C%2Froot%3E%3C%2FmxGraphModel%3E&lt;/span&gt;" style="rounded=1;whiteSpace=wrap;html=1;align=left;" vertex="1" parent="1">
                    <mxGeometry x="1065" y="732" width="385" height="30" as="geometry"/>
                </mxCell>
                <mxCell id="20" value="PHONE NUMBER" style="rounded=1;whiteSpace=wrap;html=1;align=left;" vertex="1" parent="1">
                    <mxGeometry x="1065" y="790" width="385" height="30" as="geometry"/>
                </mxCell>
                <mxCell id="21" value="SUBJECT" style="rounded=1;whiteSpace=wrap;html=1;align=left;" vertex="1" parent="1">
                    <mxGeometry x="1065" y="840" width="385" height="30" as="geometry"/>
                </mxCell>
                <mxCell id="22" value="" style="html=1;verticalLabelPosition=bottom;labelBackgroundColor=#ffffff;verticalAlign=top;shadow=0;dashed=0;strokeWidth=2;shape=mxgraph.ios7.misc.down;strokeColor=#0080f0;" vertex="1" parent="1">
                    <mxGeometry x="1420" y="852" width="20" height="6" as="geometry"/>
                </mxCell>
                <mxCell id="23" value="" style="rounded=1;whiteSpace=wrap;html=1;strokeWidth=2;fillWeight=4;hachureGap=8;hachureAngle=45;fillColor=#1ba1e2;sketch=1;" vertex="1" parent="1">
                    <mxGeometry x="1065" y="890" width="385" height="140" as="geometry"/>
                </mxCell>
                <mxCell id="24" value="SEND MESSAGE" style="strokeWidth=1;shadow=0;dashed=0;align=center;html=1;shape=mxgraph.mockup.buttons.button;strokeColor=#666666;fontColor=#ffffff;mainText=;buttonStyle=round;fontSize=17;fontStyle=1;fillColor=#008cff;whiteSpace=wrap;" vertex="1" parent="1">
                    <mxGeometry x="1065" y="1050" width="170" height="50" as="geometry"/>
                </mxCell>
                <mxCell id="25" value="MOBILE QUERY" style="rounded=1;whiteSpace=wrap;html=1;" vertex="1" parent="1">
                    <mxGeometry x="1195" y="380" width="120" height="60" as="geometry"/>
                </mxCell>
                <mxCell id="26" value="&lt;div&gt;GENERAL VALIDATION PROCESS:&lt;/div&gt;&lt;div style=&quot;text-align: left;&quot;&gt;&lt;br&gt;&lt;/div&gt;&lt;div style=&quot;text-align: left;&quot;&gt;&lt;ul&gt;&lt;li&gt;Prevent empty fields&lt;/li&gt;&lt;li&gt;Prevent invalid formats&lt;/li&gt;&lt;li&gt;prevent security issues&lt;/li&gt;&lt;li&gt;provide helpful feedback messages&lt;/li&gt;&lt;/ul&gt;&lt;/div&gt;" style="whiteSpace=wrap;html=1;aspect=fixed;" vertex="1" parent="1">
                    <mxGeometry x="750" y="-360" width="390" height="390" as="geometry"/>
                </mxCell>
                <mxCell id="27" value="&lt;h4 class=&quot;&quot; data-end=&quot;721&quot; data-start=&quot;687&quot;&gt;&lt;strong data-end=&quot;721&quot; data-start=&quot;692&quot;&gt;First Name &amp;amp; Last Name&lt;/strong&gt;&lt;/h4&gt;&lt;br/&gt;&lt;ul data-end=&quot;955&quot; data-start=&quot;722&quot;&gt;&lt;br/&gt;&lt;li class=&quot;&quot; data-end=&quot;754&quot; data-start=&quot;722&quot;&gt;&lt;br/&gt;&lt;p class=&quot;&quot; data-end=&quot;754&quot; data-start=&quot;724&quot;&gt;✅ Required: Must not be empty.&lt;/p&gt;&lt;br/&gt;&lt;/li&gt;&lt;br/&gt;&lt;li class=&quot;&quot; data-end=&quot;850&quot; data-start=&quot;755&quot;&gt;&lt;br/&gt;&lt;p class=&quot;&quot; data-end=&quot;816&quot; data-start=&quot;757&quot;&gt;✅ Only allow letters (and possibly hyphens or apostrophes).&lt;/p&gt;&lt;br/&gt;&lt;ul data-end=&quot;850&quot; data-start=&quot;819&quot;&gt;&lt;br/&gt;&lt;li class=&quot;&quot; data-end=&quot;850&quot; data-start=&quot;819&quot;&gt;&lt;br/&gt;&lt;p class=&quot;&quot; data-end=&quot;850&quot; data-start=&quot;821&quot;&gt;RegEx: &lt;code data-end=&quot;850&quot; data-start=&quot;828&quot;&gt;/^[a-zA-ZÀ-ÿ&#39;-\s]+$/&lt;/code&gt;&lt;/p&gt;&lt;br/&gt;&lt;/li&gt;&lt;br/&gt;&lt;/ul&gt;&lt;br/&gt;&lt;/li&gt;&lt;br/&gt;&lt;li class=&quot;&quot; data-end=&quot;894&quot; data-start=&quot;851&quot;&gt;&lt;br/&gt;&lt;p class=&quot;&quot; data-end=&quot;894&quot; data-start=&quot;853&quot;&gt;✅ Length check: Min 2, Max 50 characters.&lt;/p&gt;&lt;br/&gt;&lt;/li&gt;&lt;br/&gt;&lt;li class=&quot;&quot; data-end=&quot;955&quot; data-start=&quot;895&quot;&gt;&lt;br/&gt;&lt;p class=&quot;&quot; data-end=&quot;955&quot; data-start=&quot;897&quot;&gt;🚫 No numbers or special characters (e.g., &lt;code data-end=&quot;943&quot; data-start=&quot;940&quot;&gt;@&lt;/code&gt;, &lt;code data-end=&quot;948&quot; data-start=&quot;945&quot;&gt;#&lt;/code&gt;, &lt;code data-end=&quot;953&quot; data-start=&quot;950&quot;&gt;$&lt;/code&gt;).&lt;/p&gt;&lt;br/&gt;&lt;/li&gt;&lt;br/&gt;&lt;/ul&gt;&lt;br/&gt;&lt;hr class=&quot;&quot; data-end=&quot;960&quot; data-start=&quot;957&quot;&gt;&lt;br/&gt;&lt;h4 class=&quot;&quot; data-end=&quot;987&quot; data-start=&quot;962&quot;&gt;&lt;strong data-end=&quot;987&quot; data-start=&quot;967&quot;&gt;📧 Email Address&lt;/strong&gt;&lt;/h4&gt;&lt;br/&gt;&lt;ul data-end=&quot;1169&quot; data-start=&quot;988&quot;&gt;&lt;br/&gt;&lt;li class=&quot;&quot; data-end=&quot;1001&quot; data-start=&quot;988&quot;&gt;&lt;br/&gt;&lt;p class=&quot;&quot; data-end=&quot;1001&quot; data-start=&quot;990&quot;&gt;✅ Required.&lt;/p&gt;&lt;br/&gt;&lt;/li&gt;&lt;br/&gt;&lt;li class=&quot;&quot; data-end=&quot;1079&quot; data-start=&quot;1002&quot;&gt;&lt;br/&gt;&lt;p class=&quot;&quot; data-end=&quot;1037&quot; data-start=&quot;1004&quot;&gt;✅ Must be in proper email format.&lt;/p&gt;&lt;br/&gt;&lt;ul data-end=&quot;1079&quot; data-start=&quot;1040&quot;&gt;&lt;br/&gt;&lt;li class=&quot;&quot; data-end=&quot;1079&quot; data-start=&quot;1040&quot;&gt;&lt;br/&gt;&lt;p class=&quot;&quot; data-end=&quot;1079&quot; data-start=&quot;1042&quot;&gt;RegEx: &lt;code data-end=&quot;1079&quot; data-start=&quot;1049&quot;&gt;/^[^\s@]+@[^\s@]+\.[^\s@]+$/&lt;/code&gt;&lt;/p&gt;&lt;br/&gt;&lt;/li&gt;&lt;br/&gt;&lt;/ul&gt;&lt;br/&gt;&lt;/li&gt;&lt;br/&gt;&lt;li class=&quot;&quot; data-end=&quot;1153&quot; data-start=&quot;1080&quot;&gt;&lt;br/&gt;&lt;p class=&quot;&quot; data-end=&quot;1153&quot; data-start=&quot;1082&quot;&gt;✅ Optionally disallow disposable email domains (like &lt;code data-end=&quot;1151&quot; data-start=&quot;1135&quot;&gt;mailinator.com&lt;/code&gt;).&lt;/p&gt;&lt;br/&gt;&lt;/li&gt;&lt;br/&gt;&lt;li class=&quot;&quot; data-end=&quot;1169&quot; data-start=&quot;1154&quot;&gt;&lt;br/&gt;&lt;p class=&quot;&quot; data-end=&quot;1169&quot; data-start=&quot;1156&quot;&gt;🚫 No spaces.&lt;/p&gt;&lt;br/&gt;&lt;/li&gt;&lt;br/&gt;&lt;/ul&gt;&lt;br/&gt;&lt;hr class=&quot;&quot; data-end=&quot;1174&quot; data-start=&quot;1171&quot;&gt;&lt;br/&gt;&lt;h4 class=&quot;&quot; data-end=&quot;1200&quot; data-start=&quot;1176&quot;&gt;&lt;strong data-end=&quot;1200&quot; data-start=&quot;1181&quot;&gt;📞 Phone Number&lt;/strong&gt;&lt;/h4&gt;&lt;br/&gt;&lt;ul data-end=&quot;1495&quot; data-start=&quot;1201&quot;&gt;&lt;br/&gt;&lt;li class=&quot;&quot; data-end=&quot;1246&quot; data-start=&quot;1201&quot;&gt;&lt;br/&gt;&lt;p class=&quot;&quot; data-end=&quot;1246&quot; data-start=&quot;1203&quot;&gt;✅ Required or optional? (decide this first)&lt;/p&gt;&lt;br/&gt;&lt;/li&gt;&lt;br/&gt;&lt;li class=&quot;&quot; data-end=&quot;1381&quot; data-start=&quot;1247&quot;&gt;&lt;br/&gt;&lt;p class=&quot;&quot; data-end=&quot;1323&quot; data-start=&quot;1249&quot;&gt;✅ Accept only numbers and valid separators (e.g., &lt;code data-end=&quot;1303&quot; data-start=&quot;1299&quot;&gt;()&lt;/code&gt;, &lt;code data-end=&quot;1308&quot; data-start=&quot;1305&quot;&gt;-&lt;/code&gt;, &lt;code data-end=&quot;1313&quot; data-start=&quot;1310&quot;&gt;+&lt;/code&gt;, spaces).&lt;/p&gt;&lt;br/&gt;&lt;ul data-end=&quot;1381&quot; data-start=&quot;1326&quot;&gt;&lt;br/&gt;&lt;li class=&quot;&quot; data-end=&quot;1381&quot; data-start=&quot;1326&quot;&gt;&lt;br/&gt;&lt;p class=&quot;&quot; data-end=&quot;1381&quot; data-start=&quot;1328&quot;&gt;RegEx for basic validation: &lt;code data-end=&quot;1381&quot; data-start=&quot;1356&quot;&gt;/^\+?[0-9\s()-]{7,20}$/&lt;/code&gt;&lt;/p&gt;&lt;br/&gt;&lt;/li&gt;&lt;br/&gt;&lt;/ul&gt;&lt;br/&gt;&lt;/li&gt;&lt;br/&gt;&lt;li class=&quot;&quot; data-end=&quot;1440&quot; data-start=&quot;1382&quot;&gt;&lt;br/&gt;&lt;p class=&quot;&quot; data-end=&quot;1440&quot; data-start=&quot;1384&quot;&gt;✅ Normalize input (e.g., strip non-numeric for backend).&lt;/p&gt;&lt;br/&gt;&lt;/li&gt;&lt;br/&gt;&lt;li class=&quot;&quot; data-end=&quot;1495&quot; data-start=&quot;1441&quot;&gt;&lt;br/&gt;&lt;p class=&quot;&quot; data-end=&quot;1495&quot; data-start=&quot;1443&quot;&gt;✅ Enforce min/max digit length (e.g., 10-15 digits).&lt;/p&gt;&lt;br/&gt;&lt;/li&gt;&lt;br/&gt;&lt;/ul&gt;&lt;br/&gt;&lt;hr class=&quot;&quot; data-end=&quot;1500&quot; data-start=&quot;1497&quot;&gt;&lt;br/&gt;&lt;h4 class=&quot;&quot; data-end=&quot;1526&quot; data-start=&quot;1502&quot;&gt;&lt;strong data-end=&quot;1526&quot; data-start=&quot;1507&quot;&gt;📝 Subject Line&lt;/strong&gt;&lt;/h4&gt;&lt;br/&gt;&lt;ul data-end=&quot;1709&quot; data-start=&quot;1527&quot;&gt;&lt;br/&gt;&lt;li class=&quot;&quot; data-end=&quot;1540&quot; data-start=&quot;1527&quot;&gt;&lt;br/&gt;&lt;p class=&quot;&quot; data-end=&quot;1540&quot; data-start=&quot;1529&quot;&gt;✅ Required.&lt;/p&gt;&lt;br/&gt;&lt;/li&gt;&lt;br/&gt;&lt;li class=&quot;&quot; data-end=&quot;1597&quot; data-start=&quot;1541&quot;&gt;&lt;br/&gt;&lt;p class=&quot;&quot; data-end=&quot;1568&quot; data-start=&quot;1543&quot;&gt;✅ No script or HTML tags.&lt;/p&gt;&lt;br/&gt;&lt;ul data-end=&quot;1597&quot; data-start=&quot;1571&quot;&gt;&lt;br/&gt;&lt;li class=&quot;&quot; data-end=&quot;1597&quot; data-start=&quot;1571&quot;&gt;&lt;br/&gt;&lt;p class=&quot;&quot; data-end=&quot;1597&quot; data-start=&quot;1573&quot;&gt;Strip or sanitize input.&lt;/p&gt;&lt;br/&gt;&lt;/li&gt;&lt;br/&gt;&lt;/ul&gt;&lt;br/&gt;&lt;/li&gt;&lt;br/&gt;&lt;li class=&quot;&quot; data-end=&quot;1645&quot; data-start=&quot;1598&quot;&gt;&lt;br/&gt;&lt;p class=&quot;&quot; data-end=&quot;1645&quot; data-start=&quot;1600&quot;&gt;✅ Reasonable length (e.g., 5–100 characters).&lt;/p&gt;&lt;br/&gt;&lt;/li&gt;&lt;br/&gt;&lt;li class=&quot;&quot; data-end=&quot;1709&quot; data-start=&quot;1646&quot;&gt;&lt;br/&gt;&lt;p class=&quot;&quot; data-end=&quot;1709&quot; data-start=&quot;1648&quot;&gt;✅ Optional: Spellcheck enabled (&lt;code data-end=&quot;1699&quot; data-start=&quot;1680&quot;&gt;spellcheck=&quot;true&quot;&lt;/code&gt; in HTML).&lt;/p&gt;&lt;br/&gt;&lt;/li&gt;&lt;br/&gt;&lt;/ul&gt;&lt;br/&gt;&lt;hr class=&quot;&quot; data-end=&quot;1714&quot; data-start=&quot;1711&quot;&gt;&lt;br/&gt;&lt;h4 class=&quot;&quot; data-end=&quot;1745&quot; data-start=&quot;1716&quot;&gt;&lt;strong data-end=&quot;1745&quot; data-start=&quot;1721&quot;&gt;🗒️ Message/Textarea&lt;/strong&gt;&lt;/h4&gt;&lt;br/&gt;&lt;ul data-end=&quot;1960&quot; data-start=&quot;1746&quot;&gt;&lt;br/&gt;&lt;li class=&quot;&quot; data-end=&quot;1759&quot; data-start=&quot;1746&quot;&gt;&lt;br/&gt;&lt;p class=&quot;&quot; data-end=&quot;1759&quot; data-start=&quot;1748&quot;&gt;✅ Required.&lt;/p&gt;&lt;br/&gt;&lt;/li&gt;&lt;br/&gt;&lt;li class=&quot;&quot; data-end=&quot;1808&quot; data-start=&quot;1760&quot;&gt;&lt;br/&gt;&lt;p class=&quot;&quot; data-end=&quot;1808&quot; data-start=&quot;1762&quot;&gt;✅ Min and max character count (e.g., 10–1000).&lt;/p&gt;&lt;br/&gt;&lt;/li&gt;&lt;br/&gt;&lt;li class=&quot;&quot; data-end=&quot;1860&quot; data-start=&quot;1809&quot;&gt;&lt;br/&gt;&lt;p class=&quot;&quot; data-end=&quot;1860&quot; data-start=&quot;1811&quot;&gt;✅ Sanitize input (prevent HTML/script injection).&lt;/p&gt;&lt;br/&gt;&lt;/li&gt;&lt;br/&gt;&lt;li class=&quot;&quot; data-end=&quot;1927&quot; data-start=&quot;1861&quot;&gt;&lt;br/&gt;&lt;p class=&quot;&quot; data-end=&quot;1927&quot; data-start=&quot;1863&quot;&gt;✅ Provide a live character counter (optional but user-friendly).&lt;/p&gt;&lt;br/&gt;&lt;/li&gt;&lt;br/&gt;&lt;li class=&quot;&quot; data-end=&quot;1960&quot; data-start=&quot;1928&quot;&gt;&lt;br/&gt;&lt;p class=&quot;&quot; data-end=&quot;1960&quot; data-start=&quot;1930&quot;&gt;✅ Optional: Enable spellcheck.&lt;/p&gt;&lt;br/&gt;&lt;/li&gt;&lt;br/&gt;&lt;/ul&gt;&lt;br/&gt;&lt;hr class=&quot;&quot; data-end=&quot;1965&quot; data-start=&quot;1962&quot;&gt;&lt;br/&gt;&lt;h3 class=&quot;&quot; data-end=&quot;2021&quot; data-start=&quot;1967&quot;&gt;🔐 Security Considerations (in JS and Server-Side)&lt;/h3&gt;&lt;br/&gt;&lt;ul data-end=&quot;2203&quot; data-start=&quot;2022&quot;&gt;&lt;br/&gt;&lt;li class=&quot;&quot; data-end=&quot;2086&quot; data-start=&quot;2022&quot;&gt;&lt;br/&gt;&lt;p class=&quot;&quot; data-end=&quot;2086&quot; data-start=&quot;2024&quot;&gt;Sanitize all user input to prevent XSS (cross-site scripting).&lt;/p&gt;&lt;br/&gt;&lt;/li&gt;&lt;br/&gt;&lt;li class=&quot;&quot; data-end=&quot;2150&quot; data-start=&quot;2087&quot;&gt;&lt;br/&gt;&lt;p class=&quot;&quot; data-end=&quot;2150&quot; data-start=&quot;2089&quot;&gt;Escape special characters before rendering to DOM or storing.&lt;/p&gt;&lt;br/&gt;&lt;/li&gt;&lt;br/&gt;&lt;li class=&quot;&quot; data-end=&quot;2203&quot; data-start=&quot;2151&quot;&gt;&lt;br/&gt;&lt;p class=&quot;&quot; data-end=&quot;2203&quot; data-start=&quot;2153&quot;&gt;Use CAPTCHA or honeypot fields to block spam bots.&lt;/p&gt;&lt;br/&gt;&lt;/li&gt;&lt;br/&gt;&lt;/ul&gt;&lt;br/&gt;&lt;hr class=&quot;&quot; data-end=&quot;2208&quot; data-start=&quot;2205&quot;&gt;&lt;br/&gt;&lt;h3 class=&quot;&quot; data-end=&quot;2241&quot; data-start=&quot;2210&quot;&gt;✨ User Experience (UX) Tips&lt;/h3&gt;&lt;br/&gt;&lt;ul data-end=&quot;2485&quot; data-start=&quot;2242&quot;&gt;&lt;br/&gt;&lt;li class=&quot;&quot; data-end=&quot;2310&quot; data-start=&quot;2242&quot;&gt;&lt;br/&gt;&lt;p class=&quot;&quot; data-end=&quot;2310&quot; data-start=&quot;2244&quot;&gt;✅ Highlight fields with errors using styles (red border, tooltip).&lt;/p&gt;&lt;br/&gt;&lt;/li&gt;&lt;br/&gt;&lt;li class=&quot;&quot; data-end=&quot;2381&quot; data-start=&quot;2311&quot;&gt;&lt;br/&gt;&lt;p class=&quot;&quot; data-end=&quot;2381&quot; data-start=&quot;2313&quot;&gt;✅ Use &lt;code data-end=&quot;2328&quot; data-start=&quot;2319&quot;&gt;pattern&lt;/code&gt; and &lt;code data-end=&quot;2339&quot; data-start=&quot;2333&quot;&gt;type&lt;/code&gt; attributes in HTML5 for basic validation.&lt;/p&gt;&lt;br/&gt;&lt;/li&gt;&lt;br/&gt;&lt;li class=&quot;&quot; data-end=&quot;2430&quot; data-start=&quot;2382&quot;&gt;&lt;br/&gt;&lt;p class=&quot;&quot; data-end=&quot;2430&quot; data-start=&quot;2384&quot;&gt;✅ Prevent form submission if validation fails.&lt;/p&gt;&lt;br/&gt;&lt;/li&gt;&lt;br/&gt;&lt;li class=&quot;&quot; data-end=&quot;2485&quot; data-start=&quot;2431&quot;&gt;&lt;br/&gt;&lt;p class=&quot;&quot; data-end=&quot;2485&quot; data-start=&quot;2433&quot;&gt;✅ Optionally, show real-time feedback as users type.&lt;/p&gt;&lt;/li&gt;&lt;/ul&gt;" style="rounded=0;whiteSpace=wrap;html=1;" vertex="1" parent="1">
                    <mxGeometry x="1600" y="-3290" width="1780" height="3880" as="geometry"/>
                </mxCell>
            </root>
        </mxGraphModel>
    </diagram>
</mxfile>